<svg xmlns="http://www.w3.org/2000/svg" xmlns:xlink="http://www.w3.org/1999/xlink" viewBox="0 0 14 14"><path d="M 5.705 1.252 C 5.717 0.983 6.161 0.875 6.294 1.11 C 6.916 2.213 7.975 3.834 9.177 4.572 C 10.378 5.308 12.305 5.518 13.57 5.572 C 13.84 5.585 13.946 6.028 13.71 6.161 C 12.607 6.784 10.989 7.843 10.251 9.044 C 9.513 10.245 9.304 12.173 9.25 13.438 C 9.238 13.707 8.792 13.813 8.662 13.577 C 8.039 12.474 6.98 10.856 5.776 10.118 C 4.575 9.38 2.648 9.172 1.385 9.118 C 1.115 9.105 1.008 8.659 1.243 8.529 C 2.346 7.906 3.967 6.847 4.705 5.643 C 5.44 4.442 5.651 2.515 5.705 1.252 Z" fill="rgb(0, 0, 0)"></path></svg>